<?xml version="1.0" encoding="utf-8"?>
<!-- Generator: Adobe Illustrator 16.0.0, SVG Export Plug-In . SVG Version: 6.00 Build 0)  -->
<!DOCTYPE svg PUBLIC "-//W3C//DTD SVG 1.1//EN" "http://www.w3.org/Graphics/SVG/1.1/DTD/svg11.dtd">
<svg version="1.1" id="Layer_1" xmlns="http://www.w3.org/2000/svg" xmlns:xlink="http://www.w3.org/1999/xlink" x="0px" y="0px"
	 width="397px" height="114.419px" viewBox="0 0 397 114.419" enable-background="new 0 0 397 114.419" xml:space="preserve">
<polygon fill="#1D1D1B" stroke="#1D1D1B" stroke-width="0.5" stroke-miterlimit="10" points="56.463,92.461 16.661,75.713 
	16.661,58.959 56.463,58.959 "/>
<polygon fill="#933" stroke="#1D1D1B" stroke-width="0.25" stroke-miterlimit="10" points="97.649,80.889 72.428,94.027 
	72.428,45.247 97.649,50.075 "/>
<polygon fill="#1D1D1B" points="95.318,30.111 93.357,29.091 81.789,23.058 78.632,21.42 78.632,21.42 58.68,11.027 58.68,36.828 
	24.588,44.637 24.588,49.169 58.68,44.199 58.68,47.883 58.68,103.17 78.632,92.776 78.632,49.958 81.789,50.291 81.789,91.137 
	93.357,85.108 93.357,51.497 95.318,51.698 95.318,84.088 102.871,80.151 102.871,52.485 102.871,34.042 "/>
<polygon fill="#933" stroke="#1D1D1B" stroke-width="0.25" stroke-miterlimit="10" points="24.588,28.779 14.451,34.06 
	14.451,46.961 14.451,50.648 14.451,62.388 14.451,63.547 34.646,66.495 34.646,71.864 14.451,67.23 14.451,80.129 34.646,90.649 
	58.68,103.17 58.68,77.371 58.68,69.999 58.68,58.942 58.68,45.055 58.68,44.199 24.588,49.169 24.588,44.637 58.68,36.828 
	58.68,24.575 58.68,11.027 "/>
<text transform="matrix(1 0 0 1 131.3335 60.6201)" fill="#1D1D1B" font-family="'Helvetica-Bold'" font-size="18">Sean McGregor • Designer</text>
<rect x="9" y="-46.581" fill="#FF0" stroke="#933" stroke-width="20" stroke-miterlimit="10" width="31" height="26"/>
</svg>
