<?xml version="1.0" encoding="utf-8"?>
<!-- Generator: Adobe Illustrator 16.0.0, SVG Export Plug-In . SVG Version: 6.00 Build 0)  -->
<!DOCTYPE svg PUBLIC "-//W3C//DTD SVG 1.1//EN" "http://www.w3.org/Graphics/SVG/1.1/DTD/svg11.dtd">
<svg version="1.1" id="Layer_1" xmlns="http://www.w3.org/2000/svg" xmlns:xlink="http://www.w3.org/1999/xlink" x="0px" y="0px"
	 width="108px" height="107.709px" viewBox="0.5 0 108 107.709" enable-background="new 0.5 0 108 107.709" xml:space="preserve">
<g>
	<polygon fill="#1D1D1B" stroke="#1D1D1B" stroke-width="0.5" stroke-miterlimit="10" points="52.302,89.217 12.5,72.469 
		12.5,55.715 52.302,55.715 	"/>
	<polygon fill="#009933" stroke="#1D1D1B" stroke-width="0.25" stroke-miterlimit="10" points="93.488,77.645 68.267,90.783 
		68.267,42.003 93.488,46.832 	"/>
	<polygon fill="#1D1D1B" points="91.157,26.867 89.196,25.847 77.628,19.814 74.471,18.176 74.471,18.176 54.519,7.783 
		54.519,33.584 20.427,41.393 20.427,45.925 54.519,40.956 54.519,44.639 54.519,99.926 74.471,89.532 74.471,46.714 77.628,47.047 
		77.628,87.893 89.196,81.864 89.196,48.253 91.157,48.455 91.157,80.844 98.71,76.907 98.71,49.241 98.71,30.798 	"/>
	<polygon fill="#009933" stroke="#1D1D1B" stroke-width="0.25" stroke-miterlimit="10" points="20.427,25.535 10.29,30.816 
		10.29,43.717 10.29,47.404 10.29,59.144 10.29,60.303 30.485,63.25 30.485,68.62 10.29,63.986 10.29,76.885 30.485,87.405 
		54.519,99.926 54.519,74.127 54.519,66.754 54.519,55.698 54.519,41.811 54.519,40.956 20.427,45.925 20.427,41.393 54.519,33.584 
		54.519,21.332 54.519,7.783 	"/>
</g>
</svg>
